<?xml version="1.0" encoding="UTF-8"?>
<!DOCTYPE svg PUBLIC "-//W3C//DTD SVG 1.1//EN" "http://www.w3.org/Graphics/SVG/1.1/DTD/svg11.dtd">
<!-- Creator: CorelDRAW X7 -->
<svg xmlns="http://www.w3.org/2000/svg" xml:space="preserve" width="64px" height="64px" version="1.1" style="shape-rendering:geometricPrecision; text-rendering:geometricPrecision; image-rendering:optimizeQuality; fill-rule:evenodd; clip-rule:evenodd"
viewBox="0 0 64 64"
 xmlns:xlink="http://www.w3.org/1999/xlink">
 <defs>
  <style type="text/css">
   <![CDATA[
    .fil0 {fill:none}
    .fil5 {fill:#FEFEFE}
    .fil4 {fill:#01B7E6}
    .fil1 {fill:#FB1670}
    .fil3 {fill:#FB1670}
    .fil2 {fill:#FECC1D}
   ]]>
  </style>
 </defs>
 <g id="Layer_x0020_1">
  <metadata id="CorelCorpID_0Corel-Layer"/>
  <g id="_260307704">
   <g>
    <g>
     <g>
      <g>
       <path class="fil0" d="M14 37c7,0 3,6 1,9 -3,4 3,7 5,4 1,-2 2,-2 4,-2 1,-3 5,-4 7,-7 3,-4 7,-7 10,-11 3,-3 8,-10 6,-11 -3,-3 -3,-2 -1,-9 3,-5 -5,-8 -7,-1 -2,3 -3,4 -4,5 2,0 0,6 -4,10 -5,9 -7,3 -17,13z"/>
       <path class="fil0" d="M14 37c-2,0 -4,1 -6,0 -1,-1 -1,-2 -1,-3 1,-3 3,-3 4,-3 3,0 7,-4 1,-6 -1,-1 -4,-1 -4,-5 1,-3 5,-2 5,-1 5,2 10,-3 3,-8 -2,-2 -3,-5 -2,-7 1,-2 5,-2 6,0 4,8 6,11 10,8 1,0 4,0 5,2"/>
       <path class="fil0" d="M47 19c8,-3 9,3 4,5 -3,2 -3,6 1,6 7,1 7,8 -1,7 -5,0 -9,5 -6,9 4,3 5,6 2,8 -2,1 -5,0 -6,-3 -1,-7 -7,-3 -7,0 -1,3 1,5 -2,5 -2,0 -2,1 -1,1 1,2 -2,2 -2,3 -1,2 -3,2 -3,0 0,-2 -2,-3 -1,-4 1,0 4,2 4,1 1,-1 -3,-1 -4,-2 -1,-1 1,-2 1,-3 0,-2 -1,-3 -2,-4"/>
      </g>
      <path class="fil1" d="M41 30c2,-3 7,-10 6,-11 0,0 0,0 0,0 -3,-3 -3,-2 -1,-9 3,-5 -5,-8 -7,-1 -2,3 -3,4 -4,5 0,0 0,0 0,0 1,0 0,6 -4,10 -5,9 -7,3 -17,13 0,0 0,0 0,0 7,0 3,6 1,9 -3,4 3,7 5,4 1,-2 2,-2 4,-2 1,-3 5,-4 7,-7 3,-4 7,-7 10,-11z"/>
      <path class="fil2" d="M41 30c-3,4 -7,7 -10,11 -2,3 -6,4 -7,7 1,1 2,2 2,4 0,1 -2,2 -1,3 1,1 5,1 4,2 0,1 -3,-1 -4,-1 -1,1 1,2 1,4 0,2 2,2 3,0 0,-1 3,-1 2,-3 -1,0 -1,-1 1,-1 3,0 1,-2 2,-5 0,-3 6,-7 7,0 1,3 4,4 6,3 3,-2 2,-5 -2,-8 -3,-4 1,-9 6,-9 8,1 8,-6 1,-7 -4,0 -4,-4 -1,-6 5,-2 4,-8 -4,-5 1,1 -4,8 -6,11z"/>
     </g>
     <path class="fil3" d="M32 3c2,0 3,1 3,2 0,2 -3,5 -4,5 -1,0 -2,-3 -2,-4 0,-2 2,-3 3,-3z"/>
     <path class="fil3" d="M48 41c0,0 3,-2 3,-1 0,1 -3,4 -4,4 -1,0 -1,-1 -1,-3 0,-1 1,0 2,0z"/>
    </g>
    <path class="fil4" d="M31 24c4,-4 5,-10 4,-10 0,0 0,0 0,0 -1,-2 -4,-2 -5,-2 -4,3 -6,0 -10,-8 -1,-2 -5,-2 -6,0 -1,2 0,5 2,7 7,5 2,10 -3,8 0,-1 -4,-2 -5,1 0,4 3,4 4,5 6,2 2,6 -1,6 -1,0 -3,0 -4,3 0,1 0,2 1,3 2,1 4,0 6,0 -1,0 16,-7 17,-13z"/>
   </g>
   <path class="fil5" d="M22 31c0,-4 0,-5 0,-11 0,-6 3,-6 7,0 3,6 2,6 5,0 3,-6 7,-6 7,0 0,6 0,8 0,14 0,16 -19,16 -19,2 0,-2 5,-2 5,0 0,10 9,10 9,-4 0,-3 0,-5 0,-8 -6,9 -4,9 -9,0 0,3 0,3 0,7 0,3 -5,3 -5,0z"/>
  </g>
 </g>
</svg>
